<svg width="30.000000" height="30.000000" viewBox="0 0 30 30" fill="none" xmlns="http://www.w3.org/2000/svg" xmlns:xlink="http://www.w3.org/1999/xlink">
	<desc>
			Created with Pixso.
	</desc>
	<defs/>
	<path id="Vector" d="M29.81 28.93L20.68 19.8C22.58 17.7 23.75 14.92 23.75 11.87C23.75 5.32 18.42 0 11.87 0C5.32 0 0 5.32 0 11.87C0 18.42 5.32 23.75 11.87 23.75C14.92 23.75 17.7 22.58 19.8 20.68L28.93 29.81C29.05 29.93 29.21 30 29.37 30C29.53 30 29.69 29.93 29.81 29.81C30.06 29.57 30.06 29.17 29.81 28.93ZM11.87 22.5C6.01 22.5 1.25 17.73 1.25 11.87C1.25 6.01 6.01 1.25 11.87 1.25C17.73 1.25 22.5 6.01 22.5 11.87C22.5 17.73 17.73 22.5 11.87 22.5Z" fill="#A4ACAD" fill-opacity="1.000000" fill-rule="nonzero"/>
</svg>
